<?xml version="1.0" standalone="no"?>
<!DOCTYPE svg PUBLIC "-//W3C//DTD SVG 20010904//EN"
 "http://www.w3.org/TR/2001/REC-SVG-20010904/DTD/svg10.dtd">
<svg version="1.0" xmlns="http://www.w3.org/2000/svg"
 width="400.000000pt" height="400.000000pt" viewBox="0 0 400.000000 400.000000"
 preserveAspectRatio="xMidYMid meet">
<metadata>
Created by potrace 1.11, written by Peter Selinger 2001-2013
</metadata>
<g transform="translate(0.000000,400.000000) scale(0.100000,-0.100000)"
fill="#000000" stroke="none">
<path d="M1410 3165 c0 -12 -16 -15 -80 -15 -47 0 -80 -4 -80 -10 0 -6 -30
-10 -70 -10 -38 0 -70 -4 -70 -9 0 -4 -42 -11 -92 -15 -51 -4 -94 -11 -96 -16
-2 -6 -24 -10 -48 -10 -24 0 -44 -4 -44 -10 0 -5 -13 -10 -30 -10 -19 0 -30
-5 -30 -14 0 -10 -14 -16 -42 -18 -36 -2 -44 -7 -46 -25 -2 -15 -10 -23 -22
-23 -34 0 -50 -12 -50 -36 0 -13 -4 -24 -10 -24 -5 0 -10 -7 -10 -15 0 -8 -5
-15 -11 -15 -17 0 -39 -27 -39 -49 0 -12 -6 -21 -15 -21 -10 0 -15 -10 -15
-34 0 -28 -4 -35 -22 -38 -19 -2 -24 -10 -26 -40 l-3 -38 110 0 c67 0 111 4
111 10 0 6 7 10 15 10 8 0 15 7 15 15 0 12 14 15 70 15 39 0 70 4 70 9 0 5 34
12 75 16 70 7 75 9 75 31 0 24 2 24 94 24 52 0 96 4 98 9 2 5 57 13 123 17
111 6 118 6 103 -10 -9 -9 -28 -16 -42 -16 -21 0 -26 -5 -26 -26 0 -26 -20
-54 -39 -54 -6 0 -11 -7 -11 -15 0 -8 -5 -15 -11 -15 -14 0 -39 -25 -39 -39 0
-6 -4 -11 -10 -11 -5 0 -10 -7 -10 -15 0 -8 -9 -15 -20 -15 -13 0 -20 -7 -20
-20 0 -15 -7 -20 -25 -20 -18 0 -25 -5 -25 -20 0 -11 -7 -20 -15 -20 -8 0 -17
-11 -21 -25 -4 -16 -13 -25 -25 -25 -10 0 -19 -7 -19 -15 0 -8 -6 -15 -14 -15
-8 0 -16 -5 -18 -11 -2 -6 -27 -14 -56 -17 -33 -3 -52 -9 -52 -17 0 -9 -24
-15 -70 -20 -47 -5 -70 -11 -70 -20 0 -14 -30 -25 -68 -25 -15 0 -26 -7 -29
-20 -3 -11 -14 -20 -25 -20 -23 0 -48 -23 -48 -44 0 -9 -4 -16 -10 -16 -5 0
-10 -21 -10 -46 0 -52 25 -84 67 -84 12 0 23 -4 23 -10 0 -5 7 -10 15 -10 19
0 19 -17 0 -36 -8 -9 -15 -26 -15 -40 0 -18 -5 -24 -21 -24 -26 0 -49 -23 -49
-50 0 -23 -21 -50 -39 -50 -6 0 -11 -11 -11 -25 0 -14 -4 -25 -10 -25 -5 0
-10 -11 -10 -25 0 -16 -6 -25 -15 -25 -10 0 -15 -10 -15 -30 0 -23 -4 -30 -20
-30 -18 0 -20 -7 -20 -69 l0 -68 31 -7 c53 -10 171 -7 208 7 45 15 58 28 67
61 4 19 13 26 30 26 17 0 24 6 24 20 0 13 9 22 25 26 16 4 25 13 25 25 0 10 5
19 10 19 6 0 10 28 10 65 0 37 4 65 10 65 6 0 10 14 10 30 0 23 4 30 20 30 11
0 20 4 20 9 0 5 9 11 20 14 13 3 20 14 20 30 l0 24 313 7 c358 7 427 12 427
32 0 10 13 14 39 14 22 0 41 5 43 10 2 6 33 13 71 17 37 3 67 10 67 14 0 5 11
9 25 9 14 0 25 5 25 10 0 6 13 10 29 10 16 0 31 6 34 14 3 7 28 16 56 20 42 5
51 10 51 26 0 11 6 20 14 20 8 0 16 7 20 15 3 8 16 15 28 15 46 0 68 12 68 35
0 18 8 26 35 35 19 6 35 18 35 26 0 8 10 14 24 14 19 0 25 7 30 35 4 19 11 35
16 35 6 0 10 7 10 15 0 8 9 15 20 15 15 0 20 7 20 29 0 16 6 31 13 33 9 4 12
47 12 173 0 126 -3 169 -12 172 -7 3 -13 18 -13 34 0 22 -5 29 -20 29 -11 0
-20 7 -20 15 0 8 -4 15 -9 15 -5 0 -13 9 -16 20 -3 11 -15 20 -25 20 -29 0
-50 11 -50 26 0 8 -10 14 -25 14 -18 0 -25 5 -25 19 0 15 -10 20 -50 25 -27 4
-50 11 -50 16 0 6 -29 10 -65 10 -37 0 -65 4 -65 10 0 6 -27 10 -60 10 -47 0
-60 3 -60 15 0 13 -37 15 -275 15 -238 0 -275 -2 -275 -15z m460 -314 c0 -16
12 -19 117 -24 70 -3 119 -10 121 -16 2 -6 26 -11 53 -11 46 0 49 -2 49 -26 0
-17 6 -28 20 -31 17 -4 20 -14 20 -54 0 -36 -4 -49 -15 -49 -8 0 -17 -14 -21
-35 -3 -20 -12 -35 -20 -35 -8 0 -14 -6 -14 -14 0 -8 -15 -17 -35 -20 -19 -4
-35 -11 -35 -16 0 -6 -6 -10 -14 -10 -8 0 -17 -11 -20 -24 -4 -17 -15 -26 -36
-31 -16 -4 -30 -11 -30 -15 0 -5 -16 -12 -35 -16 -20 -3 -35 -12 -35 -20 0 -8
-16 -16 -40 -20 -22 -4 -40 -12 -40 -18 0 -11 -149 -36 -207 -36 -14 0 -23 -6
-23 -15 0 -12 -14 -15 -70 -15 -40 0 -70 -4 -70 -10 0 -6 -47 -10 -120 -10
l-120 0 0 24 c0 29 40 46 111 46 36 0 49 4 49 15 0 11 17 15 73 17 l72 3 3 33
3 32 -93 1 c-51 0 -86 3 -78 6 24 10 40 30 40 51 0 14 9 22 30 27 17 4 30 13
30 21 0 8 5 14 10 14 6 0 10 7 10 15 0 8 8 15 19 15 14 0 21 10 25 35 4 19 11
35 16 35 6 0 10 11 10 25 0 22 4 25 34 25 39 0 46 14 46 98 l0 52 105 0 c96 0
105 -2 105 -19z"/>
<path d="M3355 2345 c-5 -2 -22 -6 -37 -9 -16 -4 -28 -13 -28 -21 0 -10 -11
-15 -35 -15 -19 0 -35 -4 -35 -8 0 -9 -80 -32 -110 -32 -11 0 -20 -4 -20 -10
0 -5 -7 -10 -15 -10 -8 0 -15 -8 -15 -19 0 -15 -13 -21 -60 -32 -33 -7 -60
-17 -60 -21 0 -4 -5 -8 -11 -8 -7 0 -19 -8 -28 -18 -9 -11 -33 -22 -53 -26
-21 -4 -38 -11 -38 -16 0 -6 -9 -10 -20 -10 -11 0 -20 -6 -20 -14 0 -14 -7
-18 -64 -31 -29 -6 -56 -27 -56 -43 0 -10 -67 -32 -98 -32 -15 0 -22 -7 -24
-27 -2 -23 -11 -30 -45 -41 -30 -10 -43 -20 -47 -38 -5 -17 -13 -24 -31 -24
-14 0 -25 -4 -25 -9 0 -5 -10 -13 -22 -17 -13 -4 -30 -15 -39 -25 -9 -11 -21
-19 -28 -19 -6 0 -11 -6 -11 -14 0 -9 -20 -19 -50 -26 -27 -7 -50 -16 -50 -21
0 -5 -8 -9 -17 -9 -21 -1 -53 -23 -53 -37 0 -6 -9 -13 -20 -16 -15 -4 -20 0
-20 14 0 18 -9 19 -125 19 -99 0 -125 -3 -125 -14 0 -9 -22 -15 -81 -19 -65
-4 -84 -9 -98 -26 -10 -12 -26 -21 -35 -21 -26 0 -56 -19 -56 -35 0 -8 -8 -15
-18 -15 -10 0 -24 -9 -32 -20 -8 -11 -20 -20 -27 -20 -7 0 -13 -4 -13 -10 0
-5 -7 -10 -15 -10 -10 0 -15 -11 -15 -35 0 -24 5 -35 15 -35 9 0 15 -9 15 -24
0 -30 20 -36 125 -36 69 -1 78 -3 63 -14 -10 -7 -18 -18 -18 -25 0 -6 -11 -11
-25 -11 -14 0 -33 -9 -42 -20 -10 -11 -25 -20 -35 -20 -10 0 -18 -5 -18 -11 0
-18 -27 -39 -59 -45 -17 -4 -31 -10 -31 -14 0 -4 -34 -10 -76 -12 -42 -3 -79
-9 -83 -14 -3 -5 -22 -17 -42 -26 -35 -16 -37 -20 -44 -77 -6 -54 -3 -91 11
-143 5 -18 72 -48 106 -48 34 0 88 23 88 37 0 7 7 13 15 13 8 0 15 5 15 11 0
18 27 39 50 39 12 0 28 7 36 15 9 8 24 15 35 15 12 0 19 7 19 20 0 11 7 20 15
20 8 0 15 5 15 10 0 6 9 10 19 10 35 0 51 12 51 36 0 19 5 24 25 24 14 0 25 4
25 9 0 5 9 13 20 16 11 3 20 13 20 21 0 9 11 14 30 14 17 0 30 5 30 11 0 15
26 39 43 39 8 0 17 9 20 20 3 12 14 20 26 20 12 0 21 4 21 9 0 5 11 12 25 15
14 4 25 13 25 20 0 26 56 32 298 28 230 -4 242 -5 242 -23 0 -12 -7 -19 -20
-19 -11 0 -20 -7 -20 -15 0 -9 -7 -18 -15 -21 -8 -4 -15 -17 -15 -30 0 -19 -5
-24 -25 -24 -16 0 -25 -6 -25 -15 0 -8 -4 -15 -10 -15 -5 0 -10 -9 -10 -20 0
-11 -7 -20 -15 -20 -11 0 -15 -11 -15 -40 0 -22 -4 -40 -10 -40 -5 0 -10 -20
-10 -45 0 -25 5 -45 10 -45 6 0 10 -11 10 -25 0 -16 6 -25 15 -25 8 0 15 -6
15 -14 0 -16 70 -26 185 -26 103 0 155 9 155 26 0 8 9 14 20 14 11 0 20 7 20
15 0 8 7 15 15 15 8 0 15 5 15 10 0 6 16 10 35 10 19 0 35 5 35 10 0 6 9 10
19 10 33 0 51 11 51 31 0 14 7 19 25 19 14 0 25 4 25 9 0 4 18 11 41 14 22 3
42 7 44 9 2 2 7 27 11 56 l7 52 -87 0 c-68 0 -86 -3 -86 -15 0 -10 -17 -16
-60 -21 -33 -4 -60 -11 -60 -15 0 -5 -4 -9 -10 -9 -5 0 -10 7 -10 15 0 8 5 15
10 15 6 0 10 7 10 15 0 8 9 15 20 15 15 0 20 7 20 25 0 15 6 25 14 25 8 0 17
15 20 34 5 27 12 35 36 40 21 4 30 11 30 26 0 18 6 20 53 20 28 0 82 3 120 7
62 5 67 8 67 29 0 14 6 24 13 24 19 0 57 34 57 52 0 8 18 19 45 26 34 9 45 17
45 32 0 11 5 20 10 20 6 0 10 7 10 15 0 8 7 15 15 15 10 0 15 10 15 30 l0 30
-117 1 c-65 0 -112 3 -105 6 6 2 12 16 12 29 0 13 5 24 10 24 19 0 60 48 60
70 0 13 7 20 20 20 11 0 20 7 20 15 0 8 7 15 15 15 8 0 15 9 15 20 0 11 5 20
10 20 6 0 10 5 10 11 0 14 25 39 39 39 6 0 11 13 11 29 0 23 5 30 23 33 14 2
23 11 25 26 2 12 10 22 18 22 8 0 14 7 14 15 0 8 7 15 15 15 8 0 15 9 15 20 0
11 5 20 10 20 6 0 10 7 10 15 0 8 7 15 15 15 8 0 15 9 15 20 0 11 7 20 15 20
12 0 15 17 15 89 0 84 -1 89 -22 95 -24 6 -155 7 -173 1z m-335 -365 c0 -5 -7
-10 -15 -10 -10 0 -15 -10 -15 -29 0 -22 -6 -30 -25 -35 -16 -4 -25 -13 -25
-26 0 -11 -7 -20 -15 -20 -8 0 -15 -9 -15 -20 0 -15 -8 -22 -29 -26 -25 -5
-31 -12 -36 -45 -4 -24 -12 -39 -21 -39 -8 0 -14 -7 -14 -15 0 -8 -9 -15 -20
-15 -14 0 -20 -7 -20 -24 0 -31 -19 -36 -157 -36 -69 0 -113 -4 -113 -10 0 -5
-13 -10 -30 -10 -20 0 -30 5 -30 15 0 8 5 15 10 15 6 0 10 7 10 15 0 8 8 15
18 15 10 0 24 9 32 20 8 11 24 20 37 20 31 0 73 21 73 37 0 7 6 13 13 13 7 0
19 9 27 20 8 11 29 23 47 26 19 4 35 14 38 25 4 10 11 19 16 19 5 0 9 6 9 14
0 8 22 18 60 26 52 11 60 16 60 35 0 16 10 26 38 38 43 18 92 21 92 7z"/>
</g>
</svg>
